<mxfile host="app.diagrams.net" modified="2020-12-22T07:54:01.127Z" agent="5.0 (X11; Linux x86_64) AppleWebKit/537.36 (KHTML, like Gecko) Chrome/86.0.4240.198 YaBrowser/20.11.3.188 (beta) Yowser/2.5 Safari/537.36" etag="IG5g8_EoXHf3sIJKbMAd" version="14.1.1" type="github">
  <diagram id="C5RBs43oDa-KdzZeNtuy" name="Page-1">
    <mxGraphModel dx="1152" dy="716" grid="1" gridSize="10" guides="1" tooltips="1" connect="1" arrows="1" fold="1" page="1" pageScale="1" pageWidth="827" pageHeight="1169" math="0" shadow="0">
      <root>
        <mxCell id="WIyWlLk6GJQsqaUBKTNV-0" />
        <mxCell id="WIyWlLk6GJQsqaUBKTNV-1" parent="WIyWlLk6GJQsqaUBKTNV-0" />
        <mxCell id="KEJgt-CcJTFKEzZnbd5n-3" value="" style="edgeStyle=orthogonalEdgeStyle;rounded=0;orthogonalLoop=1;jettySize=auto;html=1;" edge="1" parent="WIyWlLk6GJQsqaUBKTNV-1" source="KEJgt-CcJTFKEzZnbd5n-1" target="KEJgt-CcJTFKEzZnbd5n-2">
          <mxGeometry relative="1" as="geometry" />
        </mxCell>
        <mxCell id="KEJgt-CcJTFKEzZnbd5n-1" value="запрос на получение&amp;nbsp;&lt;br&gt;итоговой информации в корзине&lt;br&gt;" style="html=1;dashed=0;whitespace=wrap;shape=mxgraph.dfd.start" vertex="1" parent="WIyWlLk6GJQsqaUBKTNV-1">
          <mxGeometry x="270" y="60" width="300" height="40" as="geometry" />
        </mxCell>
        <mxCell id="KEJgt-CcJTFKEzZnbd5n-5" value="нет&lt;br&gt;" style="edgeStyle=orthogonalEdgeStyle;rounded=0;orthogonalLoop=1;jettySize=auto;html=1;" edge="1" parent="WIyWlLk6GJQsqaUBKTNV-1" source="KEJgt-CcJTFKEzZnbd5n-2" target="KEJgt-CcJTFKEzZnbd5n-4">
          <mxGeometry relative="1" as="geometry" />
        </mxCell>
        <mxCell id="KEJgt-CcJTFKEzZnbd5n-7" value="да" style="edgeStyle=orthogonalEdgeStyle;rounded=0;orthogonalLoop=1;jettySize=auto;html=1;" edge="1" parent="WIyWlLk6GJQsqaUBKTNV-1" source="KEJgt-CcJTFKEzZnbd5n-2" target="KEJgt-CcJTFKEzZnbd5n-6">
          <mxGeometry relative="1" as="geometry" />
        </mxCell>
        <mxCell id="KEJgt-CcJTFKEzZnbd5n-2" value="авторизованный" style="rhombus;whiteSpace=wrap;html=1;dashed=0;" vertex="1" parent="WIyWlLk6GJQsqaUBKTNV-1">
          <mxGeometry x="380" y="160" width="80" height="80" as="geometry" />
        </mxCell>
        <mxCell id="KEJgt-CcJTFKEzZnbd5n-9" value="" style="edgeStyle=orthogonalEdgeStyle;rounded=0;orthogonalLoop=1;jettySize=auto;html=1;" edge="1" parent="WIyWlLk6GJQsqaUBKTNV-1" source="KEJgt-CcJTFKEzZnbd5n-4" target="KEJgt-CcJTFKEzZnbd5n-8">
          <mxGeometry relative="1" as="geometry" />
        </mxCell>
        <mxCell id="KEJgt-CcJTFKEzZnbd5n-4" value="вычесление идет в webshopt" style="whiteSpace=wrap;html=1;dashed=0;" vertex="1" parent="WIyWlLk6GJQsqaUBKTNV-1">
          <mxGeometry x="60" y="230" width="120" height="60" as="geometry" />
        </mxCell>
        <mxCell id="KEJgt-CcJTFKEzZnbd5n-11" value="" style="edgeStyle=orthogonalEdgeStyle;rounded=0;orthogonalLoop=1;jettySize=auto;html=1;" edge="1" parent="WIyWlLk6GJQsqaUBKTNV-1" source="KEJgt-CcJTFKEzZnbd5n-6" target="KEJgt-CcJTFKEzZnbd5n-10">
          <mxGeometry relative="1" as="geometry" />
        </mxCell>
        <mxCell id="KEJgt-CcJTFKEzZnbd5n-6" value="отпраляем запрос в retailCrm, для вичесление скидки или бонусов" style="whiteSpace=wrap;html=1;dashed=0;" vertex="1" parent="WIyWlLk6GJQsqaUBKTNV-1">
          <mxGeometry x="630" y="220" width="120" height="60" as="geometry" />
        </mxCell>
        <mxCell id="KEJgt-CcJTFKEzZnbd5n-8" value="отдаем ответ:&lt;br&gt;количество товара&lt;br&gt;сумма товара в корзине&lt;br&gt;итоговая сумма товара&amp;nbsp;" style="html=1;dashed=0;whitespace=wrap;shape=mxgraph.dfd.start" vertex="1" parent="WIyWlLk6GJQsqaUBKTNV-1">
          <mxGeometry x="10" y="340" width="180" height="90" as="geometry" />
        </mxCell>
        <mxCell id="KEJgt-CcJTFKEzZnbd5n-10" value="отдаем ответ:&lt;br&gt;количество товара&lt;br&gt;сумма товара в корзине&lt;br&gt;итоговая сумма товара&lt;br&gt;скидка&lt;br&gt;бонусы" style="html=1;dashed=0;whitespace=wrap;shape=mxgraph.dfd.start" vertex="1" parent="WIyWlLk6GJQsqaUBKTNV-1">
          <mxGeometry x="550" y="360" width="180" height="110" as="geometry" />
        </mxCell>
      </root>
    </mxGraphModel>
  </diagram>
</mxfile>
